<?xml version="1.0" encoding="utf-8"?>
<!DOCTYPE svg PUBLIC "-//W3C//DTD SVG 1.0//EN" "http://www.w3.org/TR/2001/REC-SVG-20010904/DTD/svg10.dtd">
<svg version="1.0" xmlns="http://www.w3.org/2000/svg" width="193px" height="170px" viewBox="0 0 193 170" preserveAspectRatio="xMidYMid meet">
 <g fill="#1d1716">
  <path d="M81.70 153.15 c-13.45 -14.10 -22.35 -24.45 -29.25 -34.10 -5.35 -7.40 -5.45 -7.60 -5.45 -9.65 0 -1.80 0.10 -1.90 1.65 -1.90 1.65 0 2.65 0.65 17.35 12 17.15 13.25 23.70 18.05 23.95 17.65 0.15 -0.25 1.30 -1.75 2.55 -3.35 6.20 -8.10 10 -13.25 15.05 -20.55 1.15 -1.65 2.70 -3.70 3.50 -4.50 0.80 -0.85 2.30 -2.80 3.30 -4.35 1.05 -1.50 3 -4.20 4.30 -5.95 1.30 -1.75 3.40 -4.55 4.65 -6.20 1.20 -1.65 3.15 -4.10 4.25 -5.50 1.10 -1.35 2.20 -2.95 2.50 -3.50 0.25 -0.55 0.75 -1.40 1.05 -1.90 0.45 -0.60 0.50 -1 0.15 -1.25 -0.55 -0.35 -8.80 -6.70 -13.45 -10.35 -1.40 -1.05 -4 -2.95 -5.80 -4.25 -3.50 -2.45 -5.75 -4.10 -13.70 -10.25 -4.40 -3.40 -7.45 -5.70 -18.65 -13.85 -0.85 -0.65 -3.75 -2.85 -6.45 -4.90 -12.55 -9.70 -15.20 -11.65 -18.30 -13.80 -3.15 -2.20 -3.40 -2.45 -3.40 -4.20 0 -1.75 0.15 -1.90 2.15 -2.60 6.60 -2.35 13.50 -3.85 19.50 -4.25 3.20 -0.20 4.05 -0.05 5.05 0.70 4.25 3.30 17.30 13.20 19.25 14.65 3.10 2.25 43.60 32.60 46.55 34.90 1.25 0.95 4.80 3.60 7.90 5.95 5.50 4.15 5.60 4.25 5.60 6.20 0 4.90 -11.65 28.60 -19.65 40.10 -1.15 1.65 -2.55 3.60 -3.10 4.35 -0.55 0.75 -1.85 2.65 -2.90 4.15 -1.05 1.55 -3.10 4.20 -4.60 5.95 -1.50 1.75 -4.35 5.05 -6.35 7.35 -2 2.35 -8.55 9.35 -14.55 15.65 -14.35 14.95 -12 14.80 -24.65 1.55z"/>
  <path d="M79.50 105.95 c-4.35 -3.50 -18.60 -14.40 -22.10 -16.95 -1.30 -0.95 -4.55 -3.45 -7.25 -5.50 -2.70 -2.05 -5.50 -4.20 -6.25 -4.75 -3.90 -2.95 -17.70 -13.40 -18 -13.70 -0.65 -0.60 -3.50 -14 -5.65 -26.65 -1.15 -6.60 -0.90 -7.50 2.80 -9.65 1.65 -0.95 3.65 -1.75 4.40 -1.75 0.95 0 2.75 1 5.55 3.10 2.25 1.75 6.85 5.20 10.25 7.65 3.35 2.50 8.45 6.30 11.30 8.45 2.85 2.20 11.60 8.80 19.45 14.65 7.85 5.90 15.70 11.85 17.50 13.25 1.80 1.40 5.35 4 7.90 5.80 4.25 3 4.60 3.40 4.60 4.95 0 1.10 -0.50 2.35 -1.40 3.55 -0.80 1 -2.45 3.20 -3.65 4.85 -1.25 1.65 -4.10 5.45 -6.35 8.40 -2.25 2.95 -4.35 5.85 -4.60 6.35 -0.40 0.75 -1.05 1 -2.65 0.95 -1.80 -0.05 -2.65 -0.50 -5.85 -3z"/>
  <path d="M158 48.75 c-1.50 -1.25 -3.75 -3 -4.95 -3.90 -1.25 -0.85 -5.80 -4.30 -10.15 -7.60 -4.35 -3.30 -9 -6.80 -10.30 -7.75 -1.30 -0.95 -3.40 -2.55 -4.60 -3.50 -1.25 -0.95 -2.60 -1.95 -3.05 -2.25 -0.50 -0.25 -3.35 -2.30 -6.35 -4.50 -5.35 -3.85 -5.55 -4.05 -5.60 -5.85 0 -1.85 0.05 -1.90 1.70 -1.90 3.20 0 9.80 1.60 21.05 5.15 9.45 2.95 19.60 7.30 27.40 11.75 l3.85 2.20 0 3.05 c-0.05 1.70 -0.35 4.90 -0.80 7.10 -0.40 2.20 -0.85 5.25 -1.05 6.75 -0.15 1.50 -0.55 2.90 -0.85 3.10 -1.40 0.95 -3.60 0.30 -6.30 -1.85z"/>
 </g>
 <g fill="#ffffff">
  <path d="M0 85 l0 -85 96.50 0 96.50 0 0 85 0 85 -96.50 0 -96.50 0 0 -85z m104.85 65.10 c6 -6.30 12.55 -13.30 14.55 -15.65 2 -2.30 4.85 -5.60 6.35 -7.35 1.50 -1.75 3.55 -4.40 4.60 -5.95 1.05 -1.50 2.35 -3.40 2.90 -4.15 6.30 -8.70 11.75 -17.90 16.35 -27.80 3.15 -6.65 6.40 -14.40 6.40 -15.15 0 -0.25 -2.55 -2.35 -5.60 -4.70 -3.10 -2.35 -6.65 -5 -7.90 -5.95 -2.95 -2.30 -43.45 -32.65 -46.55 -34.90 -1.95 -1.45 -14.90 -11.25 -19.30 -14.65 -1.25 -1 -2.70 -1 -8.65 0.05 -5.25 0.95 -15 3.90 -15 4.60 0 0.20 1.50 1.40 3.40 2.70 3.10 2.15 5.75 4.10 18.30 13.80 2.70 2.05 5.60 4.25 6.45 4.90 11.20 8.15 14.25 10.45 18.65 13.85 7.95 6.15 10.20 7.80 13.70 10.25 1.80 1.30 4.40 3.20 5.80 4.25 1.40 1.10 5.25 4.10 8.60 6.65 3.35 2.60 6.25 4.90 6.40 5.15 0.15 0.25 -0.40 1.35 -1.25 2.40 -0.85 1.05 -1.55 2.15 -1.55 2.35 -0.05 0.25 -1.05 1.70 -2.25 3.20 -1.25 1.50 -3.25 4.10 -4.50 5.75 -1.20 1.65 -3.30 4.45 -4.60 6.20 -1.30 1.75 -3.25 4.45 -4.30 5.95 -1 1.55 -2.50 3.50 -3.30 4.35 -0.80 0.80 -2.35 2.85 -3.50 4.50 -5.80 8.35 -12.35 17.20 -17.45 23.60 l-1.65 2.10 -9.85 -7.50 c-5.40 -4.15 -12.30 -9.40 -15.35 -11.75 -12.80 -9.80 -15.95 -12.15 -16.15 -11.95 -0.80 0.75 11.30 16.70 21.85 28.75 5.95 6.80 22.15 23.50 22.80 23.50 0.35 0 5.55 -5.15 11.60 -11.40z m-18.35 -43.60 c0.25 -0.50 2.35 -3.40 4.60 -6.35 2.25 -2.95 5.10 -6.75 6.35 -8.40 1.20 -1.65 2.90 -3.85 3.70 -4.90 0.80 -1.05 1.25 -2.10 1.05 -2.30 -0.25 -0.25 -2.60 -1.95 -5.20 -3.80 -2.60 -1.85 -6 -4.35 -7.50 -5.55 -1.50 -1.20 -9.15 -6.95 -17 -12.85 -7.85 -5.85 -16.60 -12.45 -19.45 -14.65 -2.85 -2.15 -7.95 -5.95 -11.30 -8.45 -3.40 -2.45 -7.95 -5.90 -10.20 -7.60 l-4.10 -3.05 -2.80 1.55 c-1.50 0.90 -2.90 2.05 -3.10 2.55 -0.20 0.50 -0.10 2.55 0.25 4.50 0.35 1.95 1 5.80 1.50 8.55 0.45 2.75 1.10 6.15 1.45 7.50 0.35 1.40 1 4.20 1.45 6.30 l0.85 3.75 8.50 6.50 c4.70 3.55 9.15 6.90 9.85 7.45 0.75 0.55 3.55 2.70 6.25 4.75 2.70 2.05 5.95 4.55 7.25 5.50 3.50 2.55 17.75 13.45 22.10 16.95 2.05 1.65 4 3 4.35 3 0.35 0.05 0.85 -0.40 1.15 -0.95z m76.90 -59.15 c0 -0.90 0.35 -3.20 0.80 -5.15 0.40 -1.95 0.90 -5.05 1.10 -6.80 l0.30 -3.25 -3.90 -2.25 c-11.70 -6.65 -30.20 -13.55 -44.15 -16.35 -2.70 -0.55 -3.95 -0.35 -2.55 0.45 0.40 0.25 3.20 2.25 6.15 4.45 3 2.25 5.55 4.05 5.70 4.05 0.15 0 1.30 0.85 2.60 1.90 1.25 1 3.35 2.65 4.65 3.60 1.30 0.95 5.95 4.45 10.30 7.75 4.35 3.30 8.90 6.75 10.15 7.60 1.20 0.90 3.45 2.65 4.95 3.85 1.50 1.20 3 2.10 3.30 1.95 0.35 -0.10 0.60 -0.95 0.60 -1.80z"/>
 </g>
</svg>